<?xml version="1.0" encoding="UTF-8" standalone="no"?>
<!-- Created with Inkscape (http://www.inkscape.org/) -->

<svg
   width="142.68602mm"
   height="142.68602mm"
   viewBox="0 0 142.68602 142.68602"
   version="1.1"
   id="svg5"
   xml:space="preserve"
   sodipodi:docname="logo.svg"
   xmlns:inkscape="http://www.inkscape.org/namespaces/inkscape"
   xmlns:sodipodi="http://sodipodi.sourceforge.net/DTD/sodipodi-0.dtd"
   xmlns="http://www.w3.org/2000/svg"
   xmlns:svg="http://www.w3.org/2000/svg"><sodipodi:namedview
     id="namedview7"
     pagecolor="#ffffff"
     bordercolor="#000000"
     borderopacity="0.25"
     inkscape:showpageshadow="2"
     inkscape:pageopacity="0.0"
     inkscape:pagecheckerboard="0"
     inkscape:deskcolor="#d1d1d1"
     inkscape:document-units="mm"
     showgrid="false" /><defs
     id="defs2" /><g
     inkscape:label="Katman 1"
     inkscape:groupmode="layer"
     id="layer1"
     transform="translate(-29.445375,-39.409247)"><g
       style="fill:#e6e6e6"
       id="g35"
       transform="matrix(0.27868364,0,0,0.27868364,29.445375,39.409247)"
       inkscape:export-filename="logoGray.svg"
       inkscape:export-xdpi="96"
       inkscape:export-ydpi="96"><g
         transform="translate(0,1)"
         id="g21"
         style="fill:#e6e6e6">
	<g
   id="g19"
   style="fill:#e6e6e6">
		<g
   id="g17"
   style="fill:#e6e6e6">
			<path
   d="M 256,-1 C 114.347,-1 0,114.2 0,255 0,395.8 114.347,511 256,511 396.8,511 512,395.8 512,255 512,114.2 397.653,-1 256,-1 Z m 0,494.933 C 124.587,493.933 17.067,386.413 17.067,255 17.067,123.587 124.587,16.067 256,16.067 c 131.413,0 238.933,107.52 238.933,238.933 0,131.413 -107.52,238.933 -238.933,238.933 z"
   id="path9"
   style="fill:#e6e6e6" />
			<path
   d="m 256,33.133 c -122.027,0 -221.867,99.84 -221.867,221.867 0,122.027 99.84,221.867 221.867,221.867 122.027,0 221.867,-99.84 221.867,-221.867 C 477.867,132.973 378.027,33.133 256,33.133 Z M 256,459.8 C 143.36,459.8 51.2,367.64 51.2,255 51.2,142.36 143.36,50.2 256,50.2 c 112.64,0 204.8,92.16 204.8,204.8 0,112.64 -92.16,204.8 -204.8,204.8 z"
   id="path11"
   style="fill:#e6e6e6" />
			<path
   d="m 256,212.333 c -23.893,0 -42.667,18.773 -42.667,42.667 0,23.893 18.773,42.667 42.667,42.667 23.04,0 42.667,-18.773 42.667,-42.667 0,-23.893 -18.774,-42.667 -42.667,-42.667 z m 0,68.267 c -14.507,0 -25.6,-11.093 -25.6,-25.6 0,-14.507 11.093,-25.6 25.6,-25.6 13.653,0 25.6,11.093 25.6,25.6 0,14.507 -11.093,25.6 -25.6,25.6 z"
   id="path13"
   style="fill:#e6e6e6" />
			<path
   d="m 381.44,129.56 c -3.413,-3.413 -8.533,-3.413 -11.947,0 l -65.411,65.411 C 290.954,184.469 274.265,178.2 256,178.2 c -18.265,0 -34.954,6.269 -48.082,16.771 L 142.507,129.56 c -3.413,-3.413 -8.533,-3.413 -11.947,0 -3.414,3.413 -3.413,8.533 0,11.947 l 65.411,65.411 C 185.469,220.047 179.2,236.735 179.2,255 c 0,18.265 6.269,34.954 16.771,48.082 l -65.411,65.411 c -3.413,3.413 -3.413,8.533 0,11.947 1.707,1.707 3.413,2.56 5.973,2.56 1.707,0 4.267,-0.853 5.973,-2.56 l 65.411,-65.411 c 13.129,10.502 29.818,16.771 48.083,16.771 18.265,0 34.954,-6.269 48.082,-16.771 l 65.411,65.411 c 1.707,1.707 3.413,2.56 5.973,2.56 1.707,0 4.267,-0.853 5.973,-2.56 3.413,-3.413 3.413,-8.533 0,-11.947 L 316.028,303.082 C 326.531,289.954 332.8,273.265 332.8,255 c 0,-18.265 -6.269,-34.953 -16.771,-48.082 l 65.411,-65.411 c 3.413,-3.414 3.413,-8.534 0,-11.947 z M 256,314.733 c -33.28,0 -59.733,-26.453 -59.733,-59.733 0,-33.28 26.453,-59.733 59.733,-59.733 32.427,0 59.733,26.453 59.733,59.733 0,33.28 -26.453,59.733 -59.733,59.733 z"
   id="path15"
   style="fill:#e6e6e6" />
		</g>
	</g>
</g></g></g></svg>
